<svg width="400" height="87" viewBox="0 0 400 87" fill="none" xmlns="http://www.w3.org/2000/svg">
<rect x="1" y="1" width="398" height="85" rx="31" stroke="#FF0000" stroke-width="2"/>
<path d="M37.0999 53.5C36.8799 53.5 36.7099 53.44 36.5899 53.32C36.4699 53.18 36.4099 53.01 36.4099 52.81V33.22C36.4099 33 36.4699 32.83 36.5899 32.71C36.7099 32.57 36.8799 32.5 37.0999 32.5H51.8899C52.1099 32.5 52.2799 32.57 52.3999 32.71C52.5399 32.83 52.6099 33 52.6099 33.22V52.81C52.6099 53.01 52.5399 53.18 52.3999 53.32C52.2799 53.44 52.1099 53.5 51.8899 53.5H50.3599C50.1599 53.5 49.9899 53.44 49.8499 53.32C49.7299 53.18 49.6699 53.01 49.6699 52.81V35.2H39.3499V52.81C39.3499 53.01 39.2799 53.18 39.1399 53.32C39.0199 53.44 38.8499 53.5 38.6299 53.5H37.0999ZM63.6166 53.8C61.5566 53.8 59.9166 53.17 58.6966 51.91C57.4766 50.63 56.8066 48.89 56.6866 46.69C56.6666 46.43 56.6566 46.1 56.6566 45.7C56.6566 45.28 56.6666 44.94 56.6866 44.68C56.7666 43.26 57.0966 42.02 57.6766 40.96C58.2566 39.88 59.0466 39.05 60.0466 38.47C61.0666 37.89 62.2566 37.6 63.6166 37.6C65.1366 37.6 66.4066 37.92 67.4266 38.56C68.4666 39.2 69.2566 40.11 69.7966 41.29C70.3366 42.47 70.6066 43.85 70.6066 45.43V45.94C70.6066 46.16 70.5366 46.33 70.3966 46.45C70.2766 46.57 70.1166 46.63 69.9166 46.63H59.5366C59.5366 46.65 59.5366 46.69 59.5366 46.75C59.5366 46.81 59.5366 46.86 59.5366 46.9C59.5766 47.72 59.7566 48.49 60.0766 49.21C60.3966 49.91 60.8566 50.48 61.4566 50.92C62.0566 51.36 62.7766 51.58 63.6166 51.58C64.3366 51.58 64.9366 51.47 65.4166 51.25C65.8966 51.03 66.2866 50.79 66.5866 50.53C66.8866 50.25 67.0866 50.04 67.1866 49.9C67.3666 49.64 67.5066 49.49 67.6066 49.45C67.7066 49.39 67.8666 49.36 68.0866 49.36H69.5266C69.7266 49.36 69.8866 49.42 70.0066 49.54C70.1466 49.64 70.2066 49.79 70.1866 49.99C70.1666 50.29 70.0066 50.66 69.7066 51.1C69.4066 51.52 68.9766 51.94 68.4166 52.36C67.8566 52.78 67.1766 53.13 66.3766 53.41C65.5766 53.67 64.6566 53.8 63.6166 53.8ZM59.5366 44.56H67.7566V44.47C67.7566 43.57 67.5866 42.77 67.2466 42.07C66.9266 41.37 66.4566 40.82 65.8366 40.42C65.2166 40 64.4766 39.79 63.6166 39.79C62.7566 39.79 62.0166 40 61.3966 40.42C60.7966 40.82 60.3366 41.37 60.0166 42.07C59.6966 42.77 59.5366 43.57 59.5366 44.47V44.56ZM74.9138 59.2C74.7138 59.2 74.5438 59.13 74.4038 58.99C74.2838 58.87 74.2238 58.71 74.2238 58.51V38.59C74.2238 38.39 74.2838 38.23 74.4038 38.11C74.5438 37.97 74.7138 37.9 74.9138 37.9H76.2938C76.4938 37.9 76.6538 37.97 76.7738 38.11C76.9138 38.23 76.9838 38.39 76.9838 38.59V39.91C77.4638 39.25 78.1038 38.7 78.9038 38.26C79.7038 37.82 80.7038 37.6 81.9038 37.6C83.0238 37.6 83.9738 37.79 84.7538 38.17C85.5538 38.55 86.2038 39.07 86.7038 39.73C87.2238 40.39 87.6138 41.14 87.8738 41.98C88.1338 42.82 88.2738 43.72 88.2938 44.68C88.3138 45 88.3238 45.34 88.3238 45.7C88.3238 46.06 88.3138 46.4 88.2938 46.72C88.2738 47.66 88.1338 48.56 87.8738 49.42C87.6138 50.26 87.2238 51.01 86.7038 51.67C86.2038 52.31 85.5538 52.83 84.7538 53.23C83.9738 53.61 83.0238 53.8 81.9038 53.8C80.7438 53.8 79.7638 53.59 78.9638 53.17C78.1838 52.73 77.5438 52.19 77.0438 51.55V58.51C77.0438 58.71 76.9838 58.87 76.8638 58.99C76.7438 59.13 76.5738 59.2 76.3538 59.2H74.9138ZM81.2738 51.37C82.3138 51.37 83.1238 51.15 83.7038 50.71C84.3038 50.25 84.7338 49.66 84.9938 48.94C85.2538 48.2 85.4038 47.41 85.4438 46.57C85.4638 45.99 85.4638 45.41 85.4438 44.83C85.4038 43.99 85.2538 43.21 84.9938 42.49C84.7338 41.75 84.3038 41.16 83.7038 40.72C83.1238 40.26 82.3138 40.03 81.2738 40.03C80.2938 40.03 79.4938 40.26 78.8738 40.72C78.2738 41.18 77.8238 41.77 77.5238 42.49C77.2438 43.19 77.0838 43.91 77.0438 44.65C77.0238 44.97 77.0138 45.35 77.0138 45.79C77.0138 46.23 77.0238 46.62 77.0438 46.96C77.0638 47.66 77.2238 48.35 77.5238 49.03C77.8438 49.71 78.3138 50.27 78.9338 50.71C79.5538 51.15 80.3338 51.37 81.2738 51.37ZM98.2748 53.8C96.2148 53.8 94.5748 53.17 93.3548 51.91C92.1348 50.63 91.4648 48.89 91.3448 46.69C91.3248 46.43 91.3148 46.1 91.3148 45.7C91.3148 45.28 91.3248 44.94 91.3448 44.68C91.4248 43.26 91.7548 42.02 92.3348 40.96C92.9148 39.88 93.7048 39.05 94.7048 38.47C95.7248 37.89 96.9148 37.6 98.2748 37.6C99.7948 37.6 101.065 37.92 102.085 38.56C103.125 39.2 103.915 40.11 104.455 41.29C104.995 42.47 105.265 43.85 105.265 45.43V45.94C105.265 46.16 105.195 46.33 105.055 46.45C104.935 46.57 104.775 46.63 104.575 46.63H94.1948C94.1948 46.65 94.1948 46.69 94.1948 46.75C94.1948 46.81 94.1948 46.86 94.1948 46.9C94.2348 47.72 94.4148 48.49 94.7348 49.21C95.0548 49.91 95.5148 50.48 96.1148 50.92C96.7148 51.36 97.4348 51.58 98.2748 51.58C98.9948 51.58 99.5948 51.47 100.075 51.25C100.555 51.03 100.945 50.79 101.245 50.53C101.545 50.25 101.745 50.04 101.845 49.9C102.025 49.64 102.165 49.49 102.265 49.45C102.365 49.39 102.525 49.36 102.745 49.36H104.185C104.385 49.36 104.545 49.42 104.665 49.54C104.805 49.64 104.865 49.79 104.845 49.99C104.825 50.29 104.665 50.66 104.365 51.1C104.065 51.52 103.635 51.94 103.075 52.36C102.515 52.78 101.835 53.13 101.035 53.41C100.235 53.67 99.3148 53.8 98.2748 53.8ZM94.1948 44.56H102.415V44.47C102.415 43.57 102.245 42.77 101.905 42.07C101.585 41.37 101.115 40.82 100.495 40.42C99.8748 40 99.1348 39.79 98.2748 39.79C97.4148 39.79 96.6748 40 96.0548 40.42C95.4548 40.82 94.9948 41.37 94.6748 42.07C94.3548 42.77 94.1948 43.57 94.1948 44.47V44.56ZM109.512 53.5C109.332 53.5 109.172 53.44 109.032 53.32C108.912 53.18 108.852 53.03 108.852 52.87V38.59C108.852 38.39 108.912 38.23 109.032 38.11C109.172 37.97 109.342 37.9 109.542 37.9H110.982C111.182 37.9 111.342 37.97 111.462 38.11C111.582 38.23 111.642 38.39 111.642 38.59V51.31L110.862 50.5L119.952 38.35C120.052 38.23 120.162 38.13 120.282 38.05C120.402 37.95 120.552 37.9 120.732 37.9H122.112C122.272 37.9 122.412 37.96 122.532 38.08C122.672 38.2 122.742 38.34 122.742 38.5V52.81C122.742 53.01 122.672 53.18 122.532 53.32C122.412 53.44 122.252 53.5 122.052 53.5H120.642C120.422 53.5 120.252 53.44 120.132 53.32C120.012 53.18 119.952 53.01 119.952 52.81V40.84L120.792 40.81L111.642 53.05C111.562 53.15 111.462 53.25 111.342 53.35C111.222 53.45 111.062 53.5 110.862 53.5H109.512ZM115.872 35.83C114.712 35.83 113.802 35.65 113.142 35.29C112.482 34.93 112.022 34.47 111.762 33.91C111.502 33.33 111.372 32.73 111.372 32.11C111.372 31.95 111.412 31.82 111.492 31.72C111.592 31.6 111.742 31.54 111.942 31.54H112.962C113.142 31.54 113.282 31.6 113.382 31.72C113.482 31.82 113.532 31.95 113.532 32.11C113.532 32.57 113.682 33 113.982 33.4C114.302 33.78 114.932 33.97 115.872 33.97C116.832 33.97 117.462 33.78 117.762 33.4C118.062 33 118.212 32.57 118.212 32.11C118.212 31.95 118.262 31.82 118.362 31.72C118.462 31.6 118.602 31.54 118.782 31.54H119.832C120.012 31.54 120.152 31.6 120.252 31.72C120.352 31.82 120.402 31.95 120.402 32.11C120.402 32.73 120.262 33.33 119.982 33.91C119.722 34.47 119.262 34.93 118.602 35.29C117.942 35.65 117.032 35.83 115.872 35.83ZM131.903 53.5C131.703 53.5 131.533 53.44 131.393 53.32C131.273 53.18 131.213 53.01 131.213 52.81V40.3H125.993C125.793 40.3 125.623 40.24 125.483 40.12C125.363 39.98 125.303 39.81 125.303 39.61V38.59C125.303 38.39 125.363 38.23 125.483 38.11C125.623 37.97 125.793 37.9 125.993 37.9H139.193C139.393 37.9 139.553 37.97 139.673 38.11C139.813 38.23 139.883 38.39 139.883 38.59V39.61C139.883 39.81 139.813 39.98 139.673 40.12C139.553 40.24 139.393 40.3 139.193 40.3H133.973V52.81C133.973 53.01 133.913 53.18 133.793 53.32C133.673 53.44 133.503 53.5 133.283 53.5H131.903ZM143.145 53.5C142.965 53.5 142.805 53.44 142.665 53.32C142.545 53.18 142.485 53.03 142.485 52.87V38.59C142.485 38.39 142.545 38.23 142.665 38.11C142.805 37.97 142.975 37.9 143.175 37.9H144.615C144.815 37.9 144.975 37.97 145.095 38.11C145.215 38.23 145.275 38.39 145.275 38.59V51.31L144.495 50.5L153.585 38.35C153.685 38.23 153.795 38.13 153.915 38.05C154.035 37.95 154.185 37.9 154.365 37.9H155.745C155.905 37.9 156.045 37.96 156.165 38.08C156.305 38.2 156.375 38.34 156.375 38.5V52.81C156.375 53.01 156.305 53.18 156.165 53.32C156.045 53.44 155.885 53.5 155.685 53.5H154.275C154.055 53.5 153.885 53.44 153.765 53.32C153.645 53.18 153.585 53.01 153.585 52.81V40.84L154.425 40.81L145.275 53.05C145.195 53.15 145.095 53.25 144.975 53.35C144.855 53.45 144.695 53.5 144.495 53.5H143.145ZM168.81 53.5C168.61 53.5 168.44 53.44 168.3 53.32C168.18 53.18 168.12 53.01 168.12 52.81V38.59C168.12 38.39 168.18 38.23 168.3 38.11C168.44 37.97 168.61 37.9 168.81 37.9H170.22C170.42 37.9 170.58 37.97 170.7 38.11C170.84 38.23 170.91 38.39 170.91 38.59V44.35H173.64L177.69 38.35C177.79 38.21 177.9 38.1 178.02 38.02C178.14 37.94 178.3 37.9 178.5 37.9H180.06C180.24 37.9 180.39 37.94 180.51 38.02C180.63 38.1 180.69 38.22 180.69 38.38C180.69 38.42 180.67 38.48 180.63 38.56C180.61 38.62 180.58 38.68 180.54 38.74L176.04 45.37L181.14 52.63C181.24 52.75 181.29 52.88 181.29 53.02C181.29 53.18 181.23 53.3 181.11 53.38C181.01 53.46 180.87 53.5 180.69 53.5H178.86C178.68 53.5 178.53 53.46 178.41 53.38C178.29 53.3 178.18 53.19 178.08 53.05L173.67 46.78H170.91V52.81C170.91 53.01 170.84 53.18 170.7 53.32C170.58 53.44 170.42 53.5 170.22 53.5H168.81ZM192.247 53.5C192.047 53.5 191.877 53.44 191.737 53.32C191.617 53.18 191.557 53.01 191.557 52.81V38.59C191.557 38.39 191.617 38.23 191.737 38.11C191.877 37.97 192.047 37.9 192.247 37.9H193.657C193.857 37.9 194.017 37.97 194.137 38.11C194.277 38.23 194.347 38.39 194.347 38.59V44.35H197.077L201.127 38.35C201.227 38.21 201.337 38.1 201.457 38.02C201.577 37.94 201.737 37.9 201.937 37.9H203.497C203.677 37.9 203.827 37.94 203.947 38.02C204.067 38.1 204.127 38.22 204.127 38.38C204.127 38.42 204.107 38.48 204.067 38.56C204.047 38.62 204.017 38.68 203.977 38.74L199.477 45.37L204.577 52.63C204.677 52.75 204.727 52.88 204.727 53.02C204.727 53.18 204.667 53.3 204.547 53.38C204.447 53.46 204.307 53.5 204.127 53.5H202.297C202.117 53.5 201.967 53.46 201.847 53.38C201.727 53.3 201.617 53.19 201.517 53.05L197.107 46.78H194.347V52.81C194.347 53.01 194.277 53.18 194.137 53.32C194.017 53.44 193.857 53.5 193.657 53.5H192.247ZM211.991 53.8C210.991 53.8 210.081 53.6 209.261 53.2C208.441 52.8 207.781 52.26 207.281 51.58C206.781 50.9 206.531 50.13 206.531 49.27C206.531 47.89 207.091 46.79 208.211 45.97C209.331 45.15 210.791 44.61 212.591 44.35L217.061 43.72V42.85C217.061 41.89 216.781 41.14 216.221 40.6C215.681 40.06 214.791 39.79 213.551 39.79C212.651 39.79 211.921 39.97 211.361 40.33C210.821 40.69 210.441 41.15 210.221 41.71C210.101 42.01 209.891 42.16 209.591 42.16H208.241C208.021 42.16 207.851 42.1 207.731 41.98C207.631 41.84 207.581 41.68 207.581 41.5C207.581 41.2 207.691 40.83 207.911 40.39C208.151 39.95 208.511 39.52 208.991 39.1C209.471 38.68 210.081 38.33 210.821 38.05C211.581 37.75 212.501 37.6 213.581 37.6C214.781 37.6 215.791 37.76 216.611 38.08C217.431 38.38 218.071 38.79 218.531 39.31C219.011 39.83 219.351 40.42 219.551 41.08C219.771 41.74 219.881 42.41 219.881 43.09V52.81C219.881 53.01 219.811 53.18 219.671 53.32C219.551 53.44 219.391 53.5 219.191 53.5H217.811C217.591 53.5 217.421 53.44 217.301 53.32C217.181 53.18 217.121 53.01 217.121 52.81V51.52C216.861 51.88 216.511 52.24 216.071 52.6C215.631 52.94 215.081 53.23 214.421 53.47C213.761 53.69 212.951 53.8 211.991 53.8ZM212.621 51.55C213.441 51.55 214.191 51.38 214.871 51.04C215.551 50.68 216.081 50.13 216.461 49.39C216.861 48.65 217.061 47.72 217.061 46.6V45.76L213.581 46.27C212.161 46.47 211.091 46.81 210.371 47.29C209.651 47.75 209.291 48.34 209.291 49.06C209.291 49.62 209.451 50.09 209.771 50.47C210.111 50.83 210.531 51.1 211.031 51.28C211.551 51.46 212.081 51.55 212.621 51.55ZM228.964 53.5C228.764 53.5 228.594 53.44 228.454 53.32C228.334 53.18 228.274 53.01 228.274 52.81V40.3H223.054C222.854 40.3 222.684 40.24 222.544 40.12C222.424 39.98 222.364 39.81 222.364 39.61V38.59C222.364 38.39 222.424 38.23 222.544 38.11C222.684 37.97 222.854 37.9 223.054 37.9H236.254C236.454 37.9 236.614 37.97 236.734 38.11C236.874 38.23 236.944 38.39 236.944 38.59V39.61C236.944 39.81 236.874 39.98 236.734 40.12C236.614 40.24 236.454 40.3 236.254 40.3H231.034V52.81C231.034 53.01 230.974 53.18 230.854 53.32C230.734 53.44 230.564 53.5 230.344 53.5H228.964ZM243.895 53.8C242.895 53.8 241.985 53.6 241.165 53.2C240.345 52.8 239.685 52.26 239.185 51.58C238.685 50.9 238.435 50.13 238.435 49.27C238.435 47.89 238.995 46.79 240.115 45.97C241.235 45.15 242.695 44.61 244.495 44.35L248.965 43.72V42.85C248.965 41.89 248.685 41.14 248.125 40.6C247.585 40.06 246.695 39.79 245.455 39.79C244.555 39.79 243.825 39.97 243.265 40.33C242.725 40.69 242.345 41.15 242.125 41.71C242.005 42.01 241.795 42.16 241.495 42.16H240.145C239.925 42.16 239.755 42.1 239.635 41.98C239.535 41.84 239.485 41.68 239.485 41.5C239.485 41.2 239.595 40.83 239.815 40.39C240.055 39.95 240.415 39.52 240.895 39.1C241.375 38.68 241.985 38.33 242.725 38.05C243.485 37.75 244.405 37.6 245.485 37.6C246.685 37.6 247.695 37.76 248.515 38.08C249.335 38.38 249.975 38.79 250.435 39.31C250.915 39.83 251.255 40.42 251.455 41.08C251.675 41.74 251.785 42.41 251.785 43.09V52.81C251.785 53.01 251.715 53.18 251.575 53.32C251.455 53.44 251.295 53.5 251.095 53.5H249.715C249.495 53.5 249.325 53.44 249.205 53.32C249.085 53.18 249.025 53.01 249.025 52.81V51.52C248.765 51.88 248.415 52.24 247.975 52.6C247.535 52.94 246.985 53.23 246.325 53.47C245.665 53.69 244.855 53.8 243.895 53.8ZM244.525 51.55C245.345 51.55 246.095 51.38 246.775 51.04C247.455 50.68 247.985 50.13 248.365 49.39C248.765 48.65 248.965 47.72 248.965 46.6V45.76L245.485 46.27C244.065 46.47 242.995 46.81 242.275 47.29C241.555 47.75 241.195 48.34 241.195 49.06C241.195 49.62 241.355 50.09 241.675 50.47C242.015 50.83 242.435 51.1 242.935 51.28C243.455 51.46 243.985 51.55 244.525 51.55ZM255.348 53.5C255.148 53.5 254.978 53.43 254.838 53.29C254.698 53.15 254.628 52.98 254.628 52.78V51.67C254.628 51.25 254.838 51.03 255.258 51.01C255.878 50.99 256.398 50.7 256.818 50.14C257.238 49.56 257.558 48.65 257.778 47.41C257.998 46.15 258.108 44.49 258.108 42.43V38.59C258.108 38.39 258.168 38.23 258.288 38.11C258.428 37.97 258.598 37.9 258.798 37.9H268.338C268.538 37.9 268.698 37.97 268.818 38.11C268.958 38.23 269.028 38.39 269.028 38.59V52.81C269.028 53.01 268.958 53.18 268.818 53.32C268.698 53.44 268.538 53.5 268.338 53.5H266.898C266.698 53.5 266.538 53.44 266.418 53.32C266.298 53.18 266.238 53.01 266.238 52.81V40.3H260.838V42.76C260.838 44.68 260.728 46.33 260.508 47.71C260.288 49.07 259.948 50.18 259.488 51.04C259.048 51.88 258.478 52.5 257.778 52.9C257.098 53.3 256.288 53.5 255.348 53.5ZM279.89 53.8C278.37 53.8 277.1 53.51 276.08 52.93C275.06 52.35 274.28 51.55 273.74 50.53C273.2 49.49 272.9 48.31 272.84 46.99C272.82 46.65 272.81 46.22 272.81 45.7C272.81 45.16 272.82 44.73 272.84 44.41C272.9 43.07 273.2 41.89 273.74 40.87C274.3 39.85 275.09 39.05 276.11 38.47C277.13 37.89 278.39 37.6 279.89 37.6C281.39 37.6 282.65 37.89 283.67 38.47C284.69 39.05 285.47 39.85 286.01 40.87C286.57 41.89 286.88 43.07 286.94 44.41C286.96 44.73 286.97 45.16 286.97 45.7C286.97 46.22 286.96 46.65 286.94 46.99C286.88 48.31 286.58 49.49 286.04 50.53C285.5 51.55 284.72 52.35 283.7 52.93C282.68 53.51 281.41 53.8 279.89 53.8ZM279.89 51.49C281.13 51.49 282.12 51.1 282.86 50.32C283.6 49.52 284 48.36 284.06 46.84C284.08 46.54 284.09 46.16 284.09 45.7C284.09 45.24 284.08 44.86 284.06 44.56C284 43.04 283.6 41.89 282.86 41.11C282.12 40.31 281.13 39.91 279.89 39.91C278.65 39.91 277.65 40.31 276.89 41.11C276.15 41.89 275.76 43.04 275.72 44.56C275.7 44.86 275.69 45.24 275.69 45.7C275.69 46.16 275.7 46.54 275.72 46.84C275.76 48.36 276.15 49.52 276.89 50.32C277.65 51.1 278.65 51.49 279.89 51.49ZM291.417 53.5C291.217 53.5 291.047 53.44 290.907 53.32C290.787 53.18 290.727 53.01 290.727 52.81V38.59C290.727 38.39 290.787 38.23 290.907 38.11C291.047 37.97 291.217 37.9 291.417 37.9H300.387C300.587 37.9 300.747 37.97 300.867 38.11C300.987 38.23 301.047 38.39 301.047 38.59V39.61C301.047 39.81 300.987 39.98 300.867 40.12C300.747 40.24 300.587 40.3 300.387 40.3H293.517V52.81C293.517 53.01 293.457 53.18 293.337 53.32C293.217 53.44 293.057 53.5 292.857 53.5H291.417ZM304.338 59.2C304.118 59.2 303.948 59.13 303.828 58.99C303.708 58.87 303.648 58.71 303.648 58.51V57.49C303.648 57.29 303.708 57.12 303.828 56.98C303.948 56.86 304.118 56.8 304.338 56.8H305.118C305.578 56.8 305.948 56.71 306.228 56.53C306.508 56.35 306.758 56.04 306.978 55.6C307.218 55.18 307.498 54.6 307.818 53.86L314.328 38.41C314.388 38.25 314.468 38.13 314.568 38.05C314.688 37.95 314.858 37.9 315.078 37.9H316.398C316.578 37.9 316.728 37.96 316.848 38.08C316.968 38.2 317.028 38.34 317.028 38.5C317.028 38.58 317.018 38.66 316.998 38.74C316.978 38.8 316.938 38.9 316.878 39.04L311.178 52.54C310.878 53.26 310.548 54.01 310.188 54.79C309.848 55.57 309.458 56.29 309.018 56.95C308.598 57.63 308.098 58.17 307.518 58.57C306.938 58.99 306.258 59.2 305.478 59.2H304.338ZM308.508 53.05L302.448 39.04C302.348 38.8 302.298 38.63 302.298 38.53C302.318 38.35 302.388 38.2 302.508 38.08C302.628 37.96 302.768 37.9 302.928 37.9H304.338C304.558 37.9 304.718 37.95 304.818 38.05C304.938 38.15 305.028 38.27 305.088 38.41L310.068 50.32L308.508 53.05Z" fill="#FF0000"/>
<circle cx="368.843" cy="43.5" r="19" stroke="#FF0000" stroke-width="2"/>
<path d="M382.55 44.2071C382.941 43.8166 382.941 43.1834 382.55 42.7929L376.186 36.4289C375.796 36.0384 375.162 36.0384 374.772 36.4289C374.381 36.8195 374.381 37.4526 374.772 37.8431L380.429 43.5L374.772 49.1569C374.381 49.5474 374.381 50.1805 374.772 50.5711C375.162 50.9616 375.796 50.9616 376.186 50.5711L382.55 44.2071ZM354.843 44.5H381.843V42.5H354.843V44.5Z" fill="#FF0000"/>
</svg>
