<svg width="396" height="83" viewBox="0 0 396 83" fill="none" xmlns="http://www.w3.org/2000/svg">
<rect width="396" height="83" rx="30" fill="#E13454"/>
<path d="M33.3037 51.5C33.1037 51.5 32.9337 51.44 32.7937 51.32C32.6737 51.18 32.6137 51.01 32.6137 50.81V36.59C32.6137 36.39 32.6737 36.23 32.7937 36.11C32.9337 35.97 33.1037 35.9 33.3037 35.9H39.5437C41.4237 35.9 42.8337 36.28 43.7737 37.04C44.7337 37.8 45.2137 38.82 45.2137 40.1C45.2137 41 45.0437 41.68 44.7037 42.14C44.3637 42.6 43.8837 42.99 43.2637 43.31C44.0237 43.63 44.5937 44.15 44.9737 44.87C45.3737 45.57 45.5737 46.3 45.5737 47.06C45.5737 48.5 45.0637 49.6 44.0437 50.36C43.0237 51.12 41.6037 51.5 39.7837 51.5H33.3037ZM35.3737 49.31H39.5437C40.5037 49.31 41.2737 49.13 41.8537 48.77C42.4537 48.39 42.7537 47.82 42.7537 47.06C42.7537 46.26 42.4837 45.68 41.9437 45.32C41.4037 44.94 40.6037 44.75 39.5437 44.75H35.3737V49.31ZM35.3737 42.53H39.3637C40.3237 42.53 41.0837 42.32 41.6437 41.9C42.2237 41.48 42.5137 40.89 42.5137 40.13C42.5137 39.35 42.2237 38.82 41.6437 38.54C41.0837 38.24 40.3237 38.09 39.3637 38.09H35.3737V42.53ZM50.1201 51.5C49.9201 51.5 49.7501 51.44 49.6101 51.32C49.4901 51.18 49.4301 51.01 49.4301 50.81V36.59C49.4301 36.39 49.4901 36.23 49.6101 36.11C49.7501 35.97 49.9201 35.9 50.1201 35.9H51.5601C51.7601 35.9 51.9201 35.97 52.0401 36.11C52.1801 36.23 52.2501 36.39 52.2501 36.59V41H55.3701C57.4101 41 58.9001 41.48 59.8401 42.44C60.7801 43.4 61.2501 44.7 61.2501 46.34C61.2501 48.1 60.7301 49.4 59.6901 50.24C58.6501 51.08 57.0901 51.5 55.0101 51.5H50.1201ZM52.2201 49.25H55.1001C56.3201 49.25 57.2101 49.04 57.7701 48.62C58.3301 48.18 58.6101 47.42 58.6101 46.34C58.6101 45.3 58.3401 44.53 57.8001 44.03C57.2601 43.51 56.3601 43.25 55.1001 43.25H52.2201V49.25ZM64.0701 51.5C63.8701 51.5 63.7001 51.44 63.5601 51.32C63.4401 51.18 63.3801 51.01 63.3801 50.81V36.59C63.3801 36.39 63.4401 36.23 63.5601 36.11C63.7001 35.97 63.8701 35.9 64.0701 35.9H65.5101C65.7101 35.9 65.8701 35.97 65.9901 36.11C66.1301 36.23 66.2001 36.39 66.2001 36.59V50.81C66.2001 51.01 66.1301 51.18 65.9901 51.32C65.8701 51.44 65.7101 51.5 65.5101 51.5H64.0701ZM76.1003 51.8C74.9203 51.8 73.9203 51.66 73.1003 51.38C72.3003 51.08 71.6503 50.71 71.1503 50.27C70.6703 49.81 70.3203 49.34 70.1003 48.86C69.8803 48.36 69.7603 47.9 69.7403 47.48C69.7403 47.3 69.8003 47.16 69.9203 47.06C70.0403 46.94 70.1803 46.88 70.3403 46.88H71.7503C71.9303 46.88 72.0803 46.93 72.2003 47.03C72.3203 47.11 72.4103 47.26 72.4703 47.48C72.7103 48.24 73.1703 48.77 73.8503 49.07C74.5303 49.37 75.3603 49.52 76.3403 49.52C76.9803 49.52 77.5703 49.44 78.1103 49.28C78.6503 49.1 79.0703 48.82 79.3703 48.44C79.6903 48.06 79.8503 47.59 79.8503 47.03C79.8503 46.21 79.6103 45.59 79.1303 45.17C78.6703 44.75 77.9503 44.54 76.9703 44.54H75.3203C75.1203 44.54 74.9603 44.48 74.8403 44.36C74.7203 44.24 74.6603 44.08 74.6603 43.88V43.07C74.6603 42.89 74.7203 42.74 74.8403 42.62C74.9603 42.48 75.1203 42.41 75.3203 42.41H76.7903C77.6103 42.41 78.2403 42.25 78.6803 41.93C79.1203 41.61 79.3403 41.1 79.3403 40.4C79.3403 39.98 79.2403 39.58 79.0403 39.2C78.8403 38.82 78.5003 38.51 78.0203 38.27C77.5603 38.01 76.9203 37.88 76.1003 37.88C74.9403 37.88 74.1203 38.08 73.6403 38.48C73.1803 38.86 72.8503 39.43 72.6503 40.19C72.5703 40.41 72.4703 40.56 72.3503 40.64C72.2503 40.72 72.1003 40.76 71.9003 40.76H70.5503C70.3703 40.76 70.2203 40.71 70.1003 40.61C69.9803 40.51 69.9203 40.37 69.9203 40.19C69.9403 39.59 70.0703 39.02 70.3103 38.48C70.5703 37.94 70.9503 37.45 71.4503 37.01C71.9703 36.57 72.6103 36.23 73.3703 35.99C74.1503 35.73 75.0603 35.6 76.1003 35.6C77.6003 35.6 78.7803 35.83 79.6403 36.29C80.5203 36.75 81.1403 37.32 81.5003 38C81.8803 38.66 82.0703 39.32 82.0703 39.98C82.0703 40.76 81.9403 41.41 81.6803 41.93C81.4403 42.45 80.9603 42.89 80.2403 43.25C81.1403 43.59 81.7603 44.1 82.1003 44.78C82.4403 45.46 82.6203 46.25 82.6403 47.15C82.6603 48.19 82.3803 49.05 81.8003 49.73C81.2403 50.41 80.4703 50.93 79.4903 51.29C78.5103 51.63 77.3803 51.8 76.1003 51.8ZM86.7119 51.5C86.5119 51.5 86.3419 51.44 86.2019 51.32C86.0819 51.18 86.0219 51.01 86.0219 50.81V36.59C86.0219 36.39 86.0819 36.23 86.2019 36.11C86.3419 35.97 86.5119 35.9 86.7119 35.9H92.9519C94.8319 35.9 96.2419 36.28 97.1819 37.04C98.1419 37.8 98.6219 38.82 98.6219 40.1C98.6219 41 98.4519 41.68 98.1119 42.14C97.7719 42.6 97.2919 42.99 96.6719 43.31C97.4319 43.63 98.0019 44.15 98.3819 44.87C98.7819 45.57 98.9819 46.3 98.9819 47.06C98.9819 48.5 98.4719 49.6 97.4519 50.36C96.4319 51.12 95.0119 51.5 93.1919 51.5H86.7119ZM88.7819 49.31H92.9519C93.9119 49.31 94.6819 49.13 95.2619 48.77C95.8619 48.39 96.1619 47.82 96.1619 47.06C96.1619 46.26 95.8919 45.68 95.3519 45.32C94.8119 44.94 94.0119 44.75 92.9519 44.75H88.7819V49.31ZM88.7819 42.53H92.7719C93.7319 42.53 94.4919 42.32 95.0519 41.9C95.6319 41.48 95.9219 40.89 95.9219 40.13C95.9219 39.35 95.6319 38.82 95.0519 38.54C94.4919 38.24 93.7319 38.09 92.7719 38.09H88.7819V42.53ZM107.188 51.8C106.188 51.8 105.278 51.6 104.458 51.2C103.638 50.8 102.978 50.26 102.478 49.58C101.978 48.9 101.728 48.13 101.728 47.27C101.728 45.89 102.288 44.79 103.408 43.97C104.528 43.15 105.988 42.61 107.788 42.35L112.258 41.72V40.85C112.258 39.89 111.978 39.14 111.418 38.6C110.878 38.06 109.988 37.79 108.748 37.79C107.848 37.79 107.118 37.97 106.558 38.33C106.018 38.69 105.638 39.15 105.418 39.71C105.298 40.01 105.088 40.16 104.788 40.16H103.438C103.218 40.16 103.048 40.1 102.928 39.98C102.828 39.84 102.778 39.68 102.778 39.5C102.778 39.2 102.888 38.83 103.108 38.39C103.348 37.95 103.708 37.52 104.188 37.1C104.668 36.68 105.278 36.33 106.018 36.05C106.778 35.75 107.698 35.6 108.778 35.6C109.978 35.6 110.988 35.76 111.808 36.08C112.628 36.38 113.268 36.79 113.728 37.31C114.208 37.83 114.548 38.42 114.748 39.08C114.968 39.74 115.078 40.41 115.078 41.09V50.81C115.078 51.01 115.008 51.18 114.868 51.32C114.748 51.44 114.588 51.5 114.388 51.5H113.008C112.788 51.5 112.618 51.44 112.498 51.32C112.378 51.18 112.318 51.01 112.318 50.81V49.52C112.058 49.88 111.708 50.24 111.268 50.6C110.828 50.94 110.278 51.23 109.618 51.47C108.958 51.69 108.148 51.8 107.188 51.8ZM107.818 49.55C108.638 49.55 109.388 49.38 110.068 49.04C110.748 48.68 111.278 48.13 111.658 47.39C112.058 46.65 112.258 45.72 112.258 44.6V43.76L108.778 44.27C107.358 44.47 106.288 44.81 105.568 45.29C104.848 45.75 104.488 46.34 104.488 47.06C104.488 47.62 104.648 48.09 104.968 48.47C105.308 48.83 105.728 49.1 106.228 49.28C106.748 49.46 107.278 49.55 107.818 49.55ZM124.161 51.5C123.961 51.5 123.791 51.44 123.651 51.32C123.531 51.18 123.471 51.01 123.471 50.81V38.3H118.251C118.051 38.3 117.881 38.24 117.741 38.12C117.621 37.98 117.561 37.81 117.561 37.61V36.59C117.561 36.39 117.621 36.23 117.741 36.11C117.881 35.97 118.051 35.9 118.251 35.9H131.451C131.651 35.9 131.811 35.97 131.931 36.11C132.071 36.23 132.141 36.39 132.141 36.59V37.61C132.141 37.81 132.071 37.98 131.931 38.12C131.811 38.24 131.651 38.3 131.451 38.3H126.231V50.81C126.231 51.01 126.171 51.18 126.051 51.32C125.931 51.44 125.761 51.5 125.541 51.5H124.161ZM135.433 51.5C135.233 51.5 135.063 51.44 134.923 51.32C134.803 51.18 134.743 51.01 134.743 50.81V36.59C134.743 36.39 134.803 36.23 134.923 36.11C135.063 35.97 135.233 35.9 135.433 35.9H136.873C137.073 35.9 137.233 35.97 137.353 36.11C137.493 36.23 137.563 36.39 137.563 36.59V41H140.923C142.963 41 144.453 41.48 145.393 42.44C146.333 43.4 146.803 44.7 146.803 46.34C146.803 48.1 146.283 49.4 145.243 50.24C144.203 51.08 142.643 51.5 140.563 51.5H135.433ZM137.533 49.25H140.683C141.883 49.25 142.763 49.04 143.323 48.62C143.883 48.18 144.163 47.42 144.163 46.34C144.163 45.3 143.893 44.53 143.353 44.03C142.813 43.51 141.923 43.25 140.683 43.25H137.533V49.25ZM162.555 51.8C161.375 51.8 160.375 51.66 159.555 51.38C158.755 51.08 158.105 50.71 157.605 50.27C157.125 49.81 156.775 49.34 156.555 48.86C156.335 48.36 156.215 47.9 156.195 47.48C156.195 47.3 156.255 47.16 156.375 47.06C156.495 46.94 156.635 46.88 156.795 46.88H158.205C158.385 46.88 158.535 46.93 158.655 47.03C158.775 47.11 158.865 47.26 158.925 47.48C159.165 48.24 159.625 48.77 160.305 49.07C160.985 49.37 161.815 49.52 162.795 49.52C163.435 49.52 164.025 49.44 164.565 49.28C165.105 49.1 165.525 48.82 165.825 48.44C166.145 48.06 166.305 47.59 166.305 47.03C166.305 46.21 166.065 45.59 165.585 45.17C165.125 44.75 164.405 44.54 163.425 44.54H161.775C161.575 44.54 161.415 44.48 161.295 44.36C161.175 44.24 161.115 44.08 161.115 43.88V43.07C161.115 42.89 161.175 42.74 161.295 42.62C161.415 42.48 161.575 42.41 161.775 42.41H163.245C164.065 42.41 164.695 42.25 165.135 41.93C165.575 41.61 165.795 41.1 165.795 40.4C165.795 39.98 165.695 39.58 165.495 39.2C165.295 38.82 164.955 38.51 164.475 38.27C164.015 38.01 163.375 37.88 162.555 37.88C161.395 37.88 160.575 38.08 160.095 38.48C159.635 38.86 159.305 39.43 159.105 40.19C159.025 40.41 158.925 40.56 158.805 40.64C158.705 40.72 158.555 40.76 158.355 40.76H157.005C156.825 40.76 156.675 40.71 156.555 40.61C156.435 40.51 156.375 40.37 156.375 40.19C156.395 39.59 156.525 39.02 156.765 38.48C157.025 37.94 157.405 37.45 157.905 37.01C158.425 36.57 159.065 36.23 159.825 35.99C160.605 35.73 161.515 35.6 162.555 35.6C164.055 35.6 165.235 35.83 166.095 36.29C166.975 36.75 167.595 37.32 167.955 38C168.335 38.66 168.525 39.32 168.525 39.98C168.525 40.76 168.395 41.41 168.135 41.93C167.895 42.45 167.415 42.89 166.695 43.25C167.595 43.59 168.215 44.1 168.555 44.78C168.895 45.46 169.075 46.25 169.095 47.15C169.115 48.19 168.835 49.05 168.255 49.73C167.695 50.41 166.925 50.93 165.945 51.29C164.965 51.63 163.835 51.8 162.555 51.8ZM176.827 51.8C175.827 51.8 174.917 51.6 174.097 51.2C173.277 50.8 172.617 50.26 172.117 49.58C171.617 48.9 171.367 48.13 171.367 47.27C171.367 45.89 171.927 44.79 173.047 43.97C174.167 43.15 175.627 42.61 177.427 42.35L181.897 41.72V40.85C181.897 39.89 181.617 39.14 181.057 38.6C180.517 38.06 179.627 37.79 178.387 37.79C177.487 37.79 176.757 37.97 176.197 38.33C175.657 38.69 175.277 39.15 175.057 39.71C174.937 40.01 174.727 40.16 174.427 40.16H173.077C172.857 40.16 172.687 40.1 172.567 39.98C172.467 39.84 172.417 39.68 172.417 39.5C172.417 39.2 172.527 38.83 172.747 38.39C172.987 37.95 173.347 37.52 173.827 37.1C174.307 36.68 174.917 36.33 175.657 36.05C176.417 35.75 177.337 35.6 178.417 35.6C179.617 35.6 180.627 35.76 181.447 36.08C182.267 36.38 182.907 36.79 183.367 37.31C183.847 37.83 184.187 38.42 184.387 39.08C184.607 39.74 184.717 40.41 184.717 41.09V50.81C184.717 51.01 184.647 51.18 184.507 51.32C184.387 51.44 184.227 51.5 184.027 51.5H182.647C182.427 51.5 182.257 51.44 182.137 51.32C182.017 51.18 181.957 51.01 181.957 50.81V49.52C181.697 49.88 181.347 50.24 180.907 50.6C180.467 50.94 179.917 51.23 179.257 51.47C178.597 51.69 177.787 51.8 176.827 51.8ZM177.457 49.55C178.277 49.55 179.027 49.38 179.707 49.04C180.387 48.68 180.917 48.13 181.297 47.39C181.697 46.65 181.897 45.72 181.897 44.6V43.76L178.417 44.27C176.997 44.47 175.927 44.81 175.207 45.29C174.487 45.75 174.127 46.34 174.127 47.06C174.127 47.62 174.287 48.09 174.607 48.47C174.947 48.83 175.367 49.1 175.867 49.28C176.387 49.46 176.917 49.55 177.457 49.55ZM189.69 51.5C189.49 51.5 189.33 51.44 189.21 51.32C189.09 51.2 189.03 51.04 189.03 50.84V36.47C189.03 36.31 189.09 36.18 189.21 36.08C189.35 35.96 189.49 35.9 189.63 35.9H191.16C191.48 35.9 191.73 36.06 191.91 36.38L197.01 45.92L202.14 36.38C202.32 36.06 202.57 35.9 202.89 35.9H204.39C204.55 35.9 204.69 35.96 204.81 36.08C204.93 36.18 204.99 36.31 204.99 36.47V50.84C204.99 51.04 204.93 51.2 204.81 51.32C204.69 51.44 204.54 51.5 204.36 51.5H202.89C202.69 51.5 202.53 51.44 202.41 51.32C202.29 51.2 202.23 51.04 202.23 50.84V38.87L203.28 38.99L198.39 48.23C198.29 48.43 198.17 48.61 198.03 48.77C197.89 48.93 197.68 49.01 197.4 49.01H196.62C196.36 49.01 196.16 48.93 196.02 48.77C195.88 48.61 195.75 48.43 195.63 48.23L190.89 39.44L191.82 39.35V50.84C191.82 51.04 191.76 51.2 191.64 51.32C191.52 51.44 191.36 51.5 191.16 51.5H189.69ZM215.689 51.8C213.629 51.8 211.989 51.17 210.769 49.91C209.549 48.63 208.879 46.89 208.759 44.69C208.739 44.43 208.729 44.1 208.729 43.7C208.729 43.28 208.739 42.94 208.759 42.68C208.839 41.26 209.169 40.02 209.749 38.96C210.329 37.88 211.119 37.05 212.119 36.47C213.139 35.89 214.329 35.6 215.689 35.6C217.209 35.6 218.479 35.92 219.499 36.56C220.539 37.2 221.329 38.11 221.869 39.29C222.409 40.47 222.679 41.85 222.679 43.43V43.94C222.679 44.16 222.609 44.33 222.469 44.45C222.349 44.57 222.189 44.63 221.989 44.63H211.609C211.609 44.65 211.609 44.69 211.609 44.75C211.609 44.81 211.609 44.86 211.609 44.9C211.649 45.72 211.829 46.49 212.149 47.21C212.469 47.91 212.929 48.48 213.529 48.92C214.129 49.36 214.849 49.58 215.689 49.58C216.409 49.58 217.009 49.47 217.489 49.25C217.969 49.03 218.359 48.79 218.659 48.53C218.959 48.25 219.159 48.04 219.259 47.9C219.439 47.64 219.579 47.49 219.679 47.45C219.779 47.39 219.939 47.36 220.159 47.36H221.599C221.799 47.36 221.959 47.42 222.079 47.54C222.219 47.64 222.279 47.79 222.259 47.99C222.239 48.29 222.079 48.66 221.779 49.1C221.479 49.52 221.049 49.94 220.489 50.36C219.929 50.78 219.249 51.13 218.449 51.41C217.649 51.67 216.729 51.8 215.689 51.8ZM211.609 42.56H219.829V42.47C219.829 41.57 219.659 40.77 219.319 40.07C218.999 39.37 218.529 38.82 217.909 38.42C217.289 38 216.549 37.79 215.689 37.79C214.829 37.79 214.089 38 213.469 38.42C212.869 38.82 212.409 39.37 212.089 40.07C211.769 40.77 211.609 41.57 211.609 42.47V42.56ZM226.986 57.2C226.786 57.2 226.616 57.13 226.476 56.99C226.356 56.87 226.296 56.71 226.296 56.51V36.59C226.296 36.39 226.356 36.23 226.476 36.11C226.616 35.97 226.786 35.9 226.986 35.9H228.366C228.566 35.9 228.726 35.97 228.846 36.11C228.986 36.23 229.056 36.39 229.056 36.59V37.91C229.536 37.25 230.176 36.7 230.976 36.26C231.776 35.82 232.776 35.6 233.976 35.6C235.096 35.6 236.046 35.79 236.826 36.17C237.626 36.55 238.276 37.07 238.776 37.73C239.296 38.39 239.686 39.14 239.946 39.98C240.206 40.82 240.346 41.72 240.366 42.68C240.386 43 240.396 43.34 240.396 43.7C240.396 44.06 240.386 44.4 240.366 44.72C240.346 45.66 240.206 46.56 239.946 47.42C239.686 48.26 239.296 49.01 238.776 49.67C238.276 50.31 237.626 50.83 236.826 51.23C236.046 51.61 235.096 51.8 233.976 51.8C232.816 51.8 231.836 51.59 231.036 51.17C230.256 50.73 229.616 50.19 229.116 49.55V56.51C229.116 56.71 229.056 56.87 228.936 56.99C228.816 57.13 228.646 57.2 228.426 57.2H226.986ZM233.346 49.37C234.386 49.37 235.196 49.15 235.776 48.71C236.376 48.25 236.806 47.66 237.066 46.94C237.326 46.2 237.476 45.41 237.516 44.57C237.536 43.99 237.536 43.41 237.516 42.83C237.476 41.99 237.326 41.21 237.066 40.49C236.806 39.75 236.376 39.16 235.776 38.72C235.196 38.26 234.386 38.03 233.346 38.03C232.366 38.03 231.566 38.26 230.946 38.72C230.346 39.18 229.896 39.77 229.596 40.49C229.316 41.19 229.156 41.91 229.116 42.65C229.096 42.97 229.086 43.35 229.086 43.79C229.086 44.23 229.096 44.62 229.116 44.96C229.136 45.66 229.296 46.35 229.596 47.03C229.916 47.71 230.386 48.27 231.006 48.71C231.626 49.15 232.406 49.37 233.346 49.37ZM263.277 55.28C263.077 55.28 262.907 55.22 262.767 55.1C262.647 54.98 262.587 54.81 262.587 54.59V51.5H244.827C244.627 51.5 244.457 51.44 244.317 51.32C244.197 51.18 244.137 51.01 244.137 50.81V36.59C244.137 36.39 244.197 36.23 244.317 36.11C244.457 35.97 244.627 35.9 244.827 35.9H246.207C246.407 35.9 246.567 35.97 246.687 36.11C246.827 36.23 246.897 36.39 246.897 36.59V49.1H252.387V36.59C252.387 36.39 252.447 36.23 252.567 36.11C252.707 35.97 252.877 35.9 253.077 35.9H254.337C254.557 35.9 254.727 35.97 254.847 36.11C254.967 36.23 255.027 36.39 255.027 36.59V49.1H260.517V36.59C260.517 36.39 260.577 36.23 260.697 36.11C260.837 35.97 261.007 35.9 261.207 35.9H262.587C262.787 35.9 262.947 35.97 263.067 36.11C263.207 36.23 263.277 36.39 263.277 36.59V49.1H264.717C264.917 49.1 265.077 49.17 265.197 49.31C265.317 49.43 265.377 49.59 265.377 49.79V54.59C265.377 54.81 265.317 54.98 265.197 55.1C265.077 55.22 264.917 55.28 264.717 55.28H263.277ZM269.201 51.5C269.021 51.5 268.861 51.44 268.721 51.32C268.601 51.18 268.541 51.03 268.541 50.87V36.59C268.541 36.39 268.601 36.23 268.721 36.11C268.861 35.97 269.031 35.9 269.231 35.9H270.671C270.871 35.9 271.031 35.97 271.151 36.11C271.271 36.23 271.331 36.39 271.331 36.59V49.31L270.551 48.5L279.641 36.35C279.741 36.23 279.851 36.13 279.971 36.05C280.091 35.95 280.241 35.9 280.421 35.9H281.801C281.961 35.9 282.101 35.96 282.221 36.08C282.361 36.2 282.431 36.34 282.431 36.5V50.81C282.431 51.01 282.361 51.18 282.221 51.32C282.101 51.44 281.941 51.5 281.741 51.5H280.331C280.111 51.5 279.941 51.44 279.821 51.32C279.701 51.18 279.641 51.01 279.641 50.81V38.84L280.481 38.81L271.331 51.05C271.251 51.15 271.151 51.25 271.031 51.35C270.911 51.45 270.751 51.5 270.551 51.5H269.201ZM287.513 51.5C287.313 51.5 287.143 51.44 287.003 51.32C286.883 51.18 286.823 51.01 286.823 50.81V36.59C286.823 36.39 286.883 36.23 287.003 36.11C287.143 35.97 287.313 35.9 287.513 35.9H288.923C289.123 35.9 289.283 35.97 289.403 36.11C289.543 36.23 289.613 36.39 289.613 36.59V42.35H292.343L296.393 36.35C296.493 36.21 296.603 36.1 296.723 36.02C296.843 35.94 297.003 35.9 297.203 35.9H298.763C298.943 35.9 299.093 35.94 299.213 36.02C299.333 36.1 299.393 36.22 299.393 36.38C299.393 36.42 299.373 36.48 299.333 36.56C299.313 36.62 299.283 36.68 299.243 36.74L294.743 43.37L299.843 50.63C299.943 50.75 299.993 50.88 299.993 51.02C299.993 51.18 299.933 51.3 299.813 51.38C299.713 51.46 299.573 51.5 299.393 51.5H297.563C297.383 51.5 297.233 51.46 297.113 51.38C296.993 51.3 296.883 51.19 296.783 51.05L292.373 44.78H289.613V50.81C289.613 51.01 289.543 51.18 289.403 51.32C289.283 51.44 289.123 51.5 288.923 51.5H287.513ZM307.257 51.8C306.257 51.8 305.347 51.6 304.527 51.2C303.707 50.8 303.047 50.26 302.547 49.58C302.047 48.9 301.797 48.13 301.797 47.27C301.797 45.89 302.357 44.79 303.477 43.97C304.597 43.15 306.057 42.61 307.857 42.35L312.327 41.72V40.85C312.327 39.89 312.047 39.14 311.487 38.6C310.947 38.06 310.057 37.79 308.817 37.79C307.917 37.79 307.187 37.97 306.627 38.33C306.087 38.69 305.707 39.15 305.487 39.71C305.367 40.01 305.157 40.16 304.857 40.16H303.507C303.287 40.16 303.117 40.1 302.997 39.98C302.897 39.84 302.847 39.68 302.847 39.5C302.847 39.2 302.957 38.83 303.177 38.39C303.417 37.95 303.777 37.52 304.257 37.1C304.737 36.68 305.347 36.33 306.087 36.05C306.847 35.75 307.767 35.6 308.847 35.6C310.047 35.6 311.057 35.76 311.877 36.08C312.697 36.38 313.337 36.79 313.797 37.31C314.277 37.83 314.617 38.42 314.817 39.08C315.037 39.74 315.147 40.41 315.147 41.09V50.81C315.147 51.01 315.077 51.18 314.937 51.32C314.817 51.44 314.657 51.5 314.457 51.5H313.077C312.857 51.5 312.687 51.44 312.567 51.32C312.447 51.18 312.387 51.01 312.387 50.81V49.52C312.127 49.88 311.777 50.24 311.337 50.6C310.897 50.94 310.347 51.23 309.687 51.47C309.027 51.69 308.217 51.8 307.257 51.8ZM307.887 49.55C308.707 49.55 309.457 49.38 310.137 49.04C310.817 48.68 311.347 48.13 311.727 47.39C312.127 46.65 312.327 45.72 312.327 44.6V43.76L308.847 44.27C307.427 44.47 306.357 44.81 305.637 45.29C304.917 45.75 304.557 46.34 304.557 47.06C304.557 47.62 304.717 48.09 305.037 48.47C305.377 48.83 305.797 49.1 306.297 49.28C306.817 49.46 307.347 49.55 307.887 49.55Z" fill="white"/>
<circle cx="366.843" cy="41.5" r="19" stroke="white" stroke-width="2"/>
<path d="M380.55 42.2071C380.941 41.8166 380.941 41.1834 380.55 40.7929L374.186 34.4289C373.796 34.0384 373.162 34.0384 372.772 34.4289C372.381 34.8195 372.381 35.4526 372.772 35.8431L378.429 41.5L372.772 47.1569C372.381 47.5474 372.381 48.1805 372.772 48.5711C373.162 48.9616 373.796 48.9616 374.186 48.5711L380.55 42.2071ZM352.843 42.5H379.843V40.5H352.843V42.5Z" fill="white"/>
</svg>
